<svg version="1.1" id="Layer_1" xmlns="http://www.w3.org/2000/svg" xmlns:xlink="http://www.w3.org/1999/xlink" x="0px" y="0px"
	 width="100%" viewBox="0 0 500 500" enable-background="new 0 0 500 500" xml:space="preserve">
<path fill="#FFFFFF" opacity="1.000000" stroke="none" 
	d="
M272.000000,501.000000 
	C181.333359,501.000000 91.166710,501.000000 1.000048,501.000000 
	C1.000032,334.333405 1.000032,167.666794 1.000016,1.000138 
	C167.666565,1.000092 334.333130,1.000092 500.999756,1.000046 
	C500.999847,167.666519 500.999847,334.333038 500.999939,500.999786 
	C424.833344,501.000000 348.666656,501.000000 272.000000,501.000000 
M311.500000,50.999321 
	C224.758560,50.999321 138.017105,50.999321 51.285393,50.999321 
	C51.285393,182.961304 51.285393,314.333801 51.285393,445.702881 
	C188.938690,445.702881 326.305725,445.702881 463.674591,445.702881 
	C463.674591,314.035736 463.674591,182.666504 463.674591,50.999321 
	C413.086975,50.999321 362.793488,50.999321 311.500000,50.999321 
z"/>
<path fill="#167544" opacity="1.000000" stroke="none" 
	d="
M312.000000,50.999321 
	C362.793488,50.999321 413.086975,50.999321 463.674591,50.999321 
	C463.674591,182.666504 463.674591,314.035736 463.674591,445.702881 
	C326.305725,445.702881 188.938690,445.702881 51.285393,445.702881 
	C51.285393,314.333801 51.285393,182.961304 51.285393,50.999321 
	C138.017105,50.999321 224.758560,50.999321 312.000000,50.999321 
M367.063538,268.955170 
	C367.063538,277.210297 367.063538,285.465393 367.063538,293.395508 
	C373.773987,293.395508 379.825195,293.395508 385.876434,293.395508 
	C385.887299,292.901489 385.898132,292.407471 385.908997,291.913452 
	C380.790100,291.913452 375.671173,291.913452 370.310852,291.913452 
	C370.310852,288.178253 370.310852,285.282623 370.310852,281.516541 
	C374.919098,281.516541 379.305969,281.516541 383.692810,281.516541 
	C383.683472,280.912079 383.674133,280.307648 383.664795,279.703186 
	C379.236023,279.703186 374.807281,279.703186 370.377594,279.703186 
	C370.377594,276.023529 370.377594,273.300354 370.377594,269.919189 
	C375.508942,269.919189 380.315491,269.919189 385.122040,269.919189 
	C385.173492,269.578857 385.224976,269.238525 385.276428,268.898193 
	C384.138702,268.266998 383.000946,267.635773 382.211029,266.337524 
	C393.075073,263.550110 402.428284,257.995667 408.686737,248.774475 
	C416.042389,237.936707 422.017822,226.170868 429.162231,215.178238 
	C434.748535,206.583038 440.893829,198.298447 447.390686,190.367310 
	C451.337921,185.548645 451.501892,184.161224 445.551392,182.239075 
	C425.585480,175.789566 405.166687,173.760925 384.446106,177.129166 
	C364.215668,180.417740 346.627808,188.909332 334.388397,206.039429 
	C321.060608,224.692795 318.934601,245.937012 320.942291,268.937561 
	C320.994751,276.087799 320.988617,283.239380 321.153595,290.387024 
	C321.183380,291.676636 321.916779,292.949982 322.325317,294.230835 
	C322.836090,294.095581 323.346863,293.960327 323.857635,293.825104 
	C323.857635,285.218719 323.857635,276.612335 324.004272,267.184570 
	C324.357941,264.883789 324.656860,262.573059 325.073547,260.283752 
	C330.816101,228.732315 346.938110,205.766510 378.518280,195.486328 
	C390.236145,191.671860 398.759735,190.252808 405.264099,191.793396 
	C367.554413,199.936768 346.237244,224.138062 334.687286,259.346558 
	C339.528778,260.939850 343.990387,262.650726 348.584045,263.859894 
	C354.646851,265.455811 360.813263,266.658325 367.063538,268.955170 
M208.533279,288.247650 
	C208.533279,281.521790 208.533279,274.795929 208.533279,268.070068 
	C207.871628,267.802521 207.209991,267.535004 206.548340,267.267487 
	C202.725952,273.657715 198.903549,280.047943 194.817795,286.878448 
	C192.443481,282.854462 190.736923,279.402679 188.501526,276.336426 
	C186.410263,273.467865 186.094666,268.871918 181.085953,267.654266 
	C181.085953,276.014771 181.029602,283.651184 181.153992,291.284668 
	C181.170380,292.290619 182.109818,293.281586 182.621735,294.279480 
	C183.093903,294.147064 183.566055,294.014618 184.038208,293.882202 
	C184.038208,287.721100 184.038208,281.559967 184.038208,275.398865 
	C184.330566,275.346619 184.622925,275.294403 184.915283,275.242188 
	C188.065918,280.506104 191.216537,285.770020 194.785614,291.733063 
	C198.417816,285.769440 201.498581,280.711212 204.579330,275.652985 
	C204.992462,275.818573 205.405594,275.984192 205.818726,276.149811 
	C205.818726,282.038422 205.818726,287.927063 205.818726,293.815674 
	C206.446716,293.925842 207.074707,294.035980 207.702698,294.146149 
	C207.979446,292.488556 208.256195,290.830994 208.533279,288.247650 
M285.411469,274.068604 
	C284.932556,275.297272 284.248199,276.487518 284.010101,277.761169 
	C282.949524,283.435120 284.209625,288.433929 289.197205,291.777008 
	C294.159119,295.102844 299.553986,295.269287 304.732941,292.340790 
	C309.932800,289.400482 311.774231,284.559418 310.984467,278.789856 
	C310.235168,273.315857 306.948181,269.607330 301.728516,268.215820 
	C295.480865,266.550232 289.874695,267.896667 285.411469,274.068604 
M170.018143,281.172943 
	C172.206497,274.508911 170.159729,269.324097 164.215256,268.351074 
	C159.784561,267.625824 155.139832,268.208191 150.278809,268.208191 
	C150.278809,276.237061 150.219681,283.855286 150.354660,291.470062 
	C150.371292,292.407928 151.424072,293.327393 151.996689,294.255402 
	C152.363663,294.094299 152.730637,293.933197 153.097610,293.772095 
	C153.294174,291.251434 153.490738,288.730804 153.677582,286.334747 
	C159.330368,285.105591 163.752396,285.716858 166.378296,291.314789 
	C167.003998,292.648651 168.835480,293.416931 170.112366,294.445374 
	C170.404465,294.099731 170.696579,293.754089 170.988678,293.408478 
	C169.217789,290.823120 167.446899,288.237793 165.629669,285.584808 
	C167.010147,284.297485 168.320801,283.075287 170.018143,281.172943 
M251.638565,285.404785 
	C251.638565,288.266113 251.638565,291.127472 251.638565,293.988800 
	C252.440323,294.062073 253.242065,294.135345 254.043823,294.208618 
	C254.423019,290.246948 254.802216,286.285248 255.174271,282.398132 
	C260.486877,282.398132 265.534973,282.398132 271.052612,282.398132 
	C271.052612,286.475647 271.052612,290.203003 271.052612,294.167938 
	C273.878601,292.653717 273.902283,292.653595 273.797943,273.223907 
	C273.788086,271.385071 273.239563,269.549164 272.941132,267.711884 
	C272.223846,267.803894 271.506561,267.895874 270.789276,267.987854 
	C270.789276,271.664185 270.789276,275.340515 270.789276,279.016541 
	C265.138153,279.016541 260.211304,279.016541 255.332779,279.016541 
	C253.640991,268.635376 253.640991,268.635376 251.638916,267.991669 
	C251.638916,273.586334 251.638916,279.007904 251.638565,285.404785 
M117.701714,289.186951 
	C117.088066,290.634766 116.474426,292.082550 115.860786,293.530365 
	C116.245598,293.828156 116.630402,294.125946 117.015213,294.423737 
	C117.981026,293.292328 119.429329,292.304840 119.818184,291.001343 
	C120.810020,287.676544 122.762444,286.545044 126.078415,287.013336 
	C127.706276,287.243195 129.424850,287.258942 131.047409,287.011414 
	C134.724289,286.450470 136.947021,287.707733 138.096298,291.370667 
	C138.470657,292.563843 140.023666,293.387207 141.037628,294.379700 
	C141.365967,294.063232 141.694305,293.746765 142.022659,293.430298 
	C138.518784,285.750824 135.060684,278.049713 131.456558,270.417572 
	C130.973663,269.395020 129.753448,268.069336 128.873550,268.068512 
	C127.991211,268.067657 126.768166,269.387177 126.280121,270.408020 
	C123.422653,276.384979 120.736954,282.444031 117.701714,289.186951 
M237.550156,271.437225 
	C238.801575,271.808502 240.052979,272.179810 241.304398,272.551117 
	C237.568771,267.398346 231.060806,266.347321 225.731247,269.060974 
	C220.397308,271.776855 217.767212,277.461456 218.921783,283.778809 
	C219.934052,289.317505 224.464783,293.598694 230.227051,294.061279 
	C234.513824,294.405396 238.860062,294.417725 241.073639,289.509705 
	C239.623535,289.445374 238.451996,290.028412 237.253311,290.548920 
	C229.160767,294.062653 221.063843,288.542908 221.707397,279.960205 
	C222.252029,272.696686 228.497421,269.016022 237.550156,271.437225 
M347.574860,291.642059 
	C340.701721,290.321320 336.757904,287.139984 337.170074,281.655884 
	C338.208282,267.842407 347.479248,269.290192 358.204773,273.086609 
	C352.301758,266.360138 343.364746,266.210388 338.036652,271.374542 
	C332.547119,276.695160 332.769928,285.917267 338.509796,290.959961 
	C343.945679,295.735565 352.825836,295.272522 357.729767,288.907288 
	C353.949219,290.018738 351.198181,290.827515 347.574860,291.642059 
M95.059128,288.480835 
	C95.059128,286.724457 95.059128,284.968079 95.059128,282.556946 
	C100.022408,282.556946 104.318573,282.556946 108.614738,282.556946 
	C108.635536,282.013092 108.656342,281.469208 108.677147,280.925354 
	C104.313400,280.925354 99.949654,280.925354 95.322731,280.925354 
	C95.322731,276.873596 95.322731,273.787476 95.322731,269.806702 
	C100.388634,269.806702 105.265320,269.806702 110.141998,269.806702 
	C110.111877,269.330658 110.081764,268.854645 110.051643,268.378601 
	C104.165581,268.378601 98.279510,268.378601 92.080452,268.378601 
	C92.080452,276.198669 92.021385,283.833069 92.155823,291.464020 
	C92.172470,292.409454 93.218132,293.336761 93.786972,294.272491 
	C94.144882,294.115173 94.502792,293.957825 94.860703,293.800507 
	C94.926842,292.337524 94.992973,290.874512 95.059128,288.480835 
z"/>
<path fill="#F4EEDB" opacity="1.000000" stroke="none" 
	d="
M321.063049,268.008301 
	C318.934601,245.937012 321.060608,224.692795 334.388397,206.039429 
	C346.627808,188.909332 364.215668,180.417740 384.446106,177.129166 
	C405.166687,173.760925 425.585480,175.789566 445.551392,182.239075 
	C451.501892,184.161224 451.337921,185.548645 447.390686,190.367310 
	C440.893829,198.298447 434.748535,206.583038 429.162231,215.178238 
	C422.017822,226.170868 416.042389,237.936707 408.686737,248.774475 
	C402.428284,257.995667 393.075073,263.550110 381.685425,266.626770 
	C376.418243,267.287354 371.676666,267.658661 366.935120,268.029968 
	C360.813263,266.658325 354.646851,265.455811 348.584045,263.859894 
	C343.990387,262.650726 339.528778,260.939850 334.687286,259.346558 
	C346.237244,224.138062 367.554413,199.936768 405.264099,191.793396 
	C398.759735,190.252808 390.236145,191.671860 378.518280,195.486328 
	C346.938110,205.766510 330.816101,228.732315 325.073547,260.283752 
	C324.656860,262.573059 324.357941,264.883789 323.581665,267.590363 
	C322.460358,268.000183 321.761719,268.004242 321.063049,268.008301 
z"/>
<path fill="#EDF4F0" opacity="1.000000" stroke="none" 
	d="
M208.533112,288.710541 
	C208.256195,290.830994 207.979446,292.488556 207.702698,294.146149 
	C207.074707,294.035980 206.446716,293.925842 205.818726,293.815674 
	C205.818726,287.927063 205.818726,282.038422 205.818726,276.149811 
	C205.405594,275.984192 204.992462,275.818573 204.579330,275.652985 
	C201.498581,280.711212 198.417816,285.769440 194.785614,291.733063 
	C191.216537,285.770020 188.065918,280.506104 184.915283,275.242188 
	C184.622925,275.294403 184.330566,275.346619 184.038208,275.398865 
	C184.038208,281.559967 184.038208,287.721100 184.038208,293.882202 
	C183.566055,294.014618 183.093903,294.147064 182.621735,294.279480 
	C182.109818,293.281586 181.170380,292.290619 181.153992,291.284668 
	C181.029602,283.651184 181.085953,276.014771 181.085953,267.654266 
	C186.094666,268.871918 186.410263,273.467865 188.501526,276.336426 
	C190.736923,279.402679 192.443481,282.854462 194.817795,286.878448 
	C198.903549,280.047943 202.725952,273.657715 206.548340,267.267487 
	C207.209991,267.535004 207.871628,267.802521 208.533279,268.070068 
	C208.533279,274.795929 208.533279,281.521790 208.533112,288.710541 
z"/>
<path fill="#EAF3EE" opacity="1.000000" stroke="none" 
	d="
M285.624207,273.763153 
	C289.874695,267.896667 295.480865,266.550232 301.728516,268.215820 
	C306.948181,269.607330 310.235168,273.315857 310.984467,278.789856 
	C311.774231,284.559418 309.932800,289.400482 304.732941,292.340790 
	C299.553986,295.269287 294.159119,295.102844 289.197205,291.777008 
	C284.209625,288.433929 282.949524,283.435120 284.010101,277.761169 
	C284.248199,276.487518 284.932556,275.297272 285.624207,273.763153 
M305.199860,273.334595 
	C303.310028,272.358368 301.518280,270.951141 299.510284,270.494049 
	C295.084869,269.486633 291.210846,270.946625 288.560638,274.665314 
	C285.917206,278.374512 285.854584,282.505219 288.059662,286.424896 
	C290.326599,290.454559 294.139618,292.038422 298.607880,291.575562 
	C307.289581,290.676208 310.711884,282.052673 305.199860,273.334595 
z"/>
<path fill="#E4EFEA" opacity="1.000000" stroke="none" 
	d="
M169.824799,281.513031 
	C168.320801,283.075287 167.010147,284.297485 165.629669,285.584808 
	C167.446899,288.237793 169.217789,290.823120 170.988678,293.408478 
	C170.696579,293.754089 170.404465,294.099731 170.112366,294.445374 
	C168.835480,293.416931 167.003998,292.648651 166.378296,291.314789 
	C163.752396,285.716858 159.330368,285.105591 153.677582,286.334747 
	C153.490738,288.730804 153.294174,291.251434 153.097610,293.772095 
	C152.730637,293.933197 152.363663,294.094299 151.996689,294.255402 
	C151.424072,293.327393 150.371292,292.407928 150.354660,291.470062 
	C150.219681,283.855286 150.278809,276.237061 150.278809,268.208191 
	C155.139832,268.208191 159.784561,267.625824 164.215256,268.351074 
	C170.159729,269.324097 172.206497,274.508911 169.824799,281.513031 
M159.322922,283.167236 
	C162.767975,283.225372 166.409882,283.007385 167.528351,279.148468 
	C168.083267,277.233948 167.701141,274.087708 166.427399,272.785767 
	C162.808731,269.086975 158.024673,270.358490 153.636230,270.471161 
	C153.636230,275.068970 153.636230,278.966370 153.636230,283.168915 
	C155.466568,283.168915 156.945374,283.168915 159.322922,283.167236 
z"/>
<path fill="#E0EDE6" opacity="1.000000" stroke="none" 
	d="
M251.638733,284.917114 
	C251.638916,279.007904 251.638916,273.586334 251.638916,267.991669 
	C253.640991,268.635376 253.640991,268.635376 255.332779,279.016541 
	C260.211304,279.016541 265.138153,279.016541 270.789276,279.016541 
	C270.789276,275.340515 270.789276,271.664185 270.789276,267.987854 
	C271.506561,267.895874 272.223846,267.803894 272.941132,267.711884 
	C273.239563,269.549164 273.788086,271.385071 273.797943,273.223907 
	C273.902283,292.653595 273.878601,292.653717 271.052612,294.167938 
	C271.052612,290.203003 271.052612,286.475647 271.052612,282.398132 
	C265.534973,282.398132 260.486877,282.398132 255.174271,282.398132 
	C254.802216,286.285248 254.423019,290.246948 254.043823,294.208618 
	C253.242065,294.135345 252.440323,294.062073 251.638565,293.988800 
	C251.638565,291.127472 251.638565,288.266113 251.638733,284.917114 
z"/>
<path fill="#EDF4F1" opacity="1.000000" stroke="none" 
	d="
M366.999329,268.492554 
	C371.676666,267.658661 376.418243,267.287354 381.511505,266.960327 
	C383.000946,267.635773 384.138702,268.266998 385.276428,268.898193 
	C385.224976,269.238525 385.173492,269.578857 385.122040,269.919189 
	C380.315491,269.919189 375.508942,269.919189 370.377594,269.919189 
	C370.377594,273.300354 370.377594,276.023529 370.377594,279.703186 
	C374.807281,279.703186 379.236023,279.703186 383.664795,279.703186 
	C383.674133,280.307648 383.683472,280.912079 383.692810,281.516541 
	C379.305969,281.516541 374.919098,281.516541 370.310852,281.516541 
	C370.310852,285.282623 370.310852,288.178253 370.310852,291.913452 
	C375.671173,291.913452 380.790100,291.913452 385.908997,291.913452 
	C385.898132,292.407471 385.887299,292.901489 385.876434,293.395508 
	C379.825195,293.395508 373.773987,293.395508 367.063538,293.395508 
	C367.063538,285.465393 367.063538,277.210297 366.999329,268.492554 
z"/>
<path fill="#EDF4F0" opacity="1.000000" stroke="none" 
	d="
M117.847504,288.831177 
	C120.736954,282.444031 123.422653,276.384979 126.280121,270.408020 
	C126.768166,269.387177 127.991211,268.067657 128.873550,268.068512 
	C129.753448,268.069336 130.973663,269.395020 131.456558,270.417572 
	C135.060684,278.049713 138.518784,285.750824 142.022659,293.430298 
	C141.694305,293.746765 141.365967,294.063232 141.037628,294.379700 
	C140.023666,293.387207 138.470657,292.563843 138.096298,291.370667 
	C136.947021,287.707733 134.724289,286.450470 131.047409,287.011414 
	C129.424850,287.258942 127.706276,287.243195 126.078415,287.013336 
	C122.762444,286.545044 120.810020,287.676544 119.818184,291.001343 
	C119.429329,292.304840 117.981026,293.292328 117.015213,294.423737 
	C116.630402,294.125946 116.245598,293.828156 115.860786,293.530365 
	C116.474426,292.082550 117.088066,290.634766 117.847504,288.831177 
M127.808372,273.332092 
	C126.192673,277.018616 124.576965,280.705139 122.854561,284.635101 
	C127.152901,284.635101 130.735748,284.635101 134.943710,284.635101 
	C133.261307,280.843475 131.807373,277.388336 130.166397,274.024445 
	C129.851486,273.378906 128.801224,273.092072 127.808372,273.332092 
z"/>
<path fill="#E8F1EC" opacity="1.000000" stroke="none" 
	d="
M237.157166,271.261963 
	C228.497421,269.016022 222.252029,272.696686 221.707397,279.960205 
	C221.063843,288.542908 229.160767,294.062653 237.253311,290.548920 
	C238.451996,290.028412 239.623535,289.445374 241.073639,289.509705 
	C238.860062,294.417725 234.513824,294.405396 230.227051,294.061279 
	C224.464783,293.598694 219.934052,289.317505 218.921783,283.778809 
	C217.767212,277.461456 220.397308,271.776855 225.731247,269.060974 
	C231.060806,266.347321 237.568771,267.398346 241.304398,272.551117 
	C240.052979,272.179810 238.801575,271.808502 237.157166,271.261963 
z"/>
<path fill="#EBF3EF" opacity="1.000000" stroke="none" 
	d="
M348.010986,291.639160 
	C351.198181,290.827515 353.949219,290.018738 357.729767,288.907288 
	C352.825836,295.272522 343.945679,295.735565 338.509796,290.959961 
	C332.769928,285.917267 332.547119,276.695160 338.036652,271.374542 
	C343.364746,266.210388 352.301758,266.360138 358.204773,273.086609 
	C347.479248,269.290192 338.208282,267.842407 337.170074,281.655884 
	C336.757904,287.139984 340.701721,290.321320 348.010986,291.639160 
z"/>
<path fill="#EAF3EE" opacity="1.000000" stroke="none" 
	d="
M95.059120,288.946167 
	C94.992973,290.874512 94.926842,292.337524 94.860703,293.800507 
	C94.502792,293.957825 94.144882,294.115173 93.786972,294.272491 
	C93.218132,293.336761 92.172470,292.409454 92.155823,291.464020 
	C92.021385,283.833069 92.080452,276.198669 92.080452,268.378601 
	C98.279510,268.378601 104.165581,268.378601 110.051643,268.378601 
	C110.081764,268.854645 110.111877,269.330658 110.141998,269.806702 
	C105.265320,269.806702 100.388634,269.806702 95.322731,269.806702 
	C95.322731,273.787476 95.322731,276.873596 95.322731,280.925354 
	C99.949654,280.925354 104.313400,280.925354 108.677147,280.925354 
	C108.656342,281.469208 108.635536,282.013092 108.614738,282.556946 
	C104.318573,282.556946 100.022408,282.556946 95.059128,282.556946 
	C95.059128,284.968079 95.059128,286.724457 95.059120,288.946167 
z"/>
<path fill="#F3F8F5" opacity="1.000000" stroke="none" 
	d="
M321.002686,268.472931 
	C321.761719,268.004242 322.460358,268.000183 323.508331,268.001038 
	C323.857635,276.612335 323.857635,285.218719 323.857635,293.825104 
	C323.346863,293.960327 322.836090,294.095581 322.325317,294.230835 
	C321.916779,292.949982 321.183380,291.676636 321.153595,290.387024 
	C320.988617,283.239380 320.994751,276.087799 321.002686,268.472931 
z"/>
<path fill="#1B7848" opacity="1.000000" stroke="none" 
	d="
M305.467590,273.619751 
	C310.711884,282.052673 307.289581,290.676208 298.607880,291.575562 
	C294.139618,292.038422 290.326599,290.454559 288.059662,286.424896 
	C285.854584,282.505219 285.917206,278.374512 288.560638,274.665314 
	C291.210846,270.946625 295.084869,269.486633 299.510284,270.494049 
	C301.518280,270.951141 303.310028,272.358368 305.467590,273.619751 
z"/>
<path fill="#217C4D" opacity="1.000000" stroke="none" 
	d="
M158.873566,283.168091 
	C156.945374,283.168915 155.466568,283.168915 153.636230,283.168915 
	C153.636230,278.966370 153.636230,275.068970 153.636230,270.471161 
	C158.024673,270.358490 162.808731,269.086975 166.427399,272.785767 
	C167.701141,274.087708 168.083267,277.233948 167.528351,279.148468 
	C166.409882,283.007385 162.767975,283.225372 158.873566,283.168091 
z"/>
<path fill="#288053" opacity="1.000000" stroke="none" 
	d="
M127.949280,272.985931 
	C128.801224,273.092072 129.851486,273.378906 130.166397,274.024445 
	C131.807373,277.388336 133.261307,280.843475 134.943710,284.635101 
	C130.735748,284.635101 127.152901,284.635101 122.854561,284.635101 
	C124.576965,280.705139 126.192673,277.018616 127.949280,272.985931 
z"/>
</svg>